<?xml version="1.0" encoding="utf-8"?>
<!-- Generator: Adobe Illustrator 26.0.3, SVG Export Plug-In . SVG Version: 6.00 Build 0)  -->
<svg version="1.1" id="Layer_1" focusable="false" xmlns="http://www.w3.org/2000/svg" xmlns:xlink="http://www.w3.org/1999/xlink"
	 x="0px" y="0px" viewBox="0 0 512 512" style="enable-background:new 0 0 512 512;" xml:space="preserve">
<style type="text/css">
	.st0{fill:#07C3DD;}
</style>
<path class="st0" d="M448,224h-64v-24c0-30.9,25.1-56,56-56h16c22.1,0,40-17.9,40-40V72c0-22.1-17.9-40-40-40h-16
	c-92.6,0-168,75.4-168,168v216c0,35.3,28.7,64,64,64h112c35.3,0,64-28.7,64-64V288C512,252.7,483.3,224,448,224z M480,416
	c0,17.7-14.3,32-32,32H336c-17.7,0-32-14.3-32-32V200c0-75.1,60.9-136,136-136h16c4.4,0,8,3.6,8,8v32c0,4.4-3.6,8-8,8h-16
	c-48.6,0-88,39.4-88,88v56h96c17.7,0,32,14.3,32,32V416z M176,224h-64v-24c0-30.9,25.1-56,56-56h16c22.1,0,40-17.9,40-40V72
	c0-22.1-17.9-40-40-40h-16C75.4,32,0,107.4,0,200v216c0,35.3,28.7,64,64,64h112c35.3,0,64-28.7,64-64V288
	C240,252.7,211.3,224,176,224z M208,416c0,17.7-14.3,32-32,32H64c-17.7,0-32-14.3-32-32V200c0-75.1,60.9-136,136-136h16
	c4.4,0,8,3.6,8,8v32c0,4.4-3.6,8-8,8h-16c-48.6,0-88,39.4-88,88v56h96c17.7,0,32,14.3,32,32V416z"/>
</svg>
